<?xml version="1.0" standalone="no"?><!DOCTYPE svg PUBLIC "-//W3C//DTD SVG 1.1//EN" "http://www.w3.org/Graphics/SVG/1.1/DTD/svg11.dtd"><svg class="icon" width="200px" height="200.00px" viewBox="0 0 1024 1024" version="1.1" xmlns="http://www.w3.org/2000/svg"><path d="M476.546 152.659l20.163-10.857 80.265 149.069-20.163 10.857zM339.126 152.588l20.17-10.846L599.838 589.1l-20.17 10.846zM292.998 312.957l20.358-10.489 194.97 378.448-20.357 10.488z" fill="#FF8D0A" /><path d="M392.44 640.854l20.367-10.468 49.55 96.41-20.367 10.468z" fill="#4B5E6D" /><path d="M775 388H554.8l-6-11.7 175.7-263.5H318.3l-76.9 435.8h161.2l-58 379.7L775 388z m-95.1 45.9l-61.6 77.3-39.8-77.3h101.4z m-76-223l-29-52.2h63.8l-34.8 52.2z m-55.2-52.2l40.9 73.7-64.9 97.3-88.1-171h112.1z m-191.9 0h54l99.3 192.8-54.9 82.4h97.4l50 97-62.4 78.4-198.4-365.5 15-85.1z m-60.7 344l7.5-42.3 21.2 42.3h-28.7z m54.3 0l-40.1-80.3L335.4 280l189.3 348.6-108.8 136.6L456 502.7H350.4z" fill="#4B5E6D" /></svg>