<?xml version="1.0" standalone="no"?><!DOCTYPE svg PUBLIC "-//W3C//DTD SVG 1.1//EN" "http://www.w3.org/Graphics/SVG/1.1/DTD/svg11.dtd"><svg class="icon" width="200px" height="200.00px" viewBox="0 0 1024 1024" version="1.1" xmlns="http://www.w3.org/2000/svg"><path d="M581.128427 777.351484c-9.639544 0-15.696494-0.445138-16.954137-0.545423l6.820336-85.636402c1.300622 0.134053 133.346007 8.65717 196.617029-87.910189 112.24748-171.298388 6.962575-314.51009-39.730886-364.963179l-90.855264 53.556777-43.623544-74.009598 108.304682-63.842027c15.234983-15.72924 41.694611-16.510022 59.060117-3.037173 56.895825 44.043099 236.960877 257.867022 78.6902 499.374448-76.107375 116.183116-210.79596 127.012765-258.328533 127.012766z" fill="#00D8A0" /><path d="M426.213171 804.876374c-21.392216 0-43.245943-1.870604-65.343217-5.713119-124.889405-21.685905-214.343763-99.604532-233.471402-203.337081-25.662473-139.16862 25.594935-274.972609 148.245345-392.71422 90.058109-86.450954 186.323593-132.590807 190.375886-134.512576 14.555507-6.870478 31.887244-2.785439 41.769312 9.857508 3.003404 3.825119 74.085322 95.0324 132.952035 210.652698 82.658581 162.331155 99.017154 288.61328 48.632627 375.348713-51.635007 88.883353-150.887522 140.418077-263.160586 140.418077z m44.76453-661.150972c-32.658817 18.422581-92.851735 55.972802-149.000546 110.183472-105.753579 102.096283-148.479683 212.93467-126.995369 329.451384C211.449853 672.663166 297.540603 718.418256 372.631836 731.454154c83.069951 14.446014 200.35926-3.473101 257.313413-101.526301 72.179926-124.234489-77.080539-374.282429-158.967548-486.202451z" fill="#444444" /><path d="M444.015629 958.708971c-14.471596 0-27.936259-9.211802-32.667003-23.724331-90.351797-277.413194-28.355815-589.264735-25.67066-602.410126 3.792373-18.582217 21.963221-30.586622 40.528042-26.787086 18.582217 3.792373 30.586622 21.937638 26.811646 40.528042-0.621147 3.045359-60.938907 307.573097 23.682375 567.377238 5.872754 18.053168-3.992941 37.448914-22.029735 43.321668a34.719756 34.719756 0 0 1-10.654665 1.694595z" fill="#444444" /></svg>